<svg id="flat" enable-background="new 0 0 512 512" height="512" viewBox="0 0 512 512" width="512" xmlns="http://www.w3.org/2000/svg"><path d="m336 48c-4.4179688 0-8-3.581543-8-8v-32c0-4.418457 3.5820313-8 8-8s8 3.581543 8 8v32c0 4.418457-3.5820312 8-8 8z" fill="#f05a29"/><path d="m200 104h-16c0 8.7999878-7.1999512 16-16 16h-8v24h-32v-48h24v-24h40z" fill="#fac8b2"/><path d="m152 72v24h-24v24c-14.9599609-10-24-26.7999878-24-44.8800049v-3.1199951z" fill="#286c84"/><path d="m80 472v32h64c0-17.6801758-14.3198242-32-32-32z" fill="#914d1a"/><path d="m144 472v32h64c0-17.6801758-14.3198242-32-32-32z" fill="#7f3c0f"/><path d="m184 240v64l-44.7998047 117.6000977-19.2001953 50.3999023h-40l45.2797852-168c-8.7998047-8.800293-13.2797852-20.3999023-13.2797852-32s4.4799805-23.2001953 13.2797852-32z" fill="#00587e"/><path d="m184 304v168h-40l-4.7998047-50.3999023z" fill="#014259"/><path d="m304 40h64v96h-64z" fill="#f98800"/><path d="m272 72h32v32h-32z" fill="#fcc200"/><path d="m368 40h32v32h-32z" fill="#fcc200"/><path d="m368 104h32v32h-32z" fill="#fcc200"/><path d="m320 136h32v32h-32z" fill="#fcc200"/><path d="m296 168h80v32h-80z" fill="#ffec00"/><path d="m336 200-14.5600586 55.2797852-65.4399414 248.7202148h-16l64-304z" fill="#fcc200"/><path d="m432 504h-16l-65.4399414-248.6401367v-.0800781l-14.5600586-55.2797852h32z" fill="#fcc200"/><path d="m350.5600586 255.2797852v.0800781l-6.5600586 248.6401367h-16l-6.5600586-248.7202148 14.5600586-55.2797852z" fill="#f05a29"/><path d="m272 104v56c0 8.7998047-7.2001953 16-16 16h-72v-16c0-8.800293-7.2001953-16-16-16h72v-40z" fill="#fcc200"/><path d="m272 72h-16c-8.8365631 0-16 7.1634445-16 16v16h32z" fill="#fac8b2"/><path d="m152 72v24h-24v24c-14.9599609-10-24-26.7999878-24-44.8800049v-3.1199951z" fill="#286c84"/><path d="m88 248h-17.3762207c-2.4143066-6.807373-7.8164063-12.2094116-14.6237793-14.6238403v-17.3761597c0-4.418457-3.5820313-8-8-8s-8 3.581543-8 8v17.3761597c-6.807373 2.4144287-12.2094727 7.8164673-14.6237793 14.6238403h-17.3762207c-4.4179688 0-8 3.581543-8 8s3.5820313 8 8 8h17.3762207c2.4143066 6.807373 7.8164063 12.2094116 14.6237793 14.6238403v17.3761597c0 4.418457 3.5820313 8 8 8s8-3.581543 8-8v-17.3761597c6.807373-2.4144287 12.2094727-7.8164673 14.6237793-14.6238403h17.3762207c4.4179688 0 8-3.581543 8-8s-3.5820312-8-8-8zm-40 16c-4.4111328 0-8-3.5888672-8-8s3.5888672-8 8-8 8 3.5888672 8 8-3.5888672 8-8 8z" fill="#ffec00"/><path d="m504 248h-17.3759766c-2.4145508-6.807373-7.8168945-12.2094116-14.6240234-14.6238403v-17.3761597c0-4.418457-3.5820313-8-8-8s-8 3.581543-8 8v17.3761597c-6.8071289 2.4144287-12.2094727 7.8164673-14.6240234 14.6238403h-17.3759766c-4.4179688 0-8 3.581543-8 8s3.5820313 8 8 8h17.3759766c2.4145508 6.807373 7.8168945 12.2094116 14.6240234 14.6238403v17.3761597c0 4.418457 3.5820313 8 8 8s8-3.581543 8-8v-17.3761597c6.8071289-2.4144287 12.2094727-7.8164673 14.6240234-14.6238403h17.3759766c4.4179688 0 8-3.581543 8-8s-3.5820312-8-8-8zm-40 16c-4.4111328 0-8-3.5888672-8-8s3.5888672-8 8-8 8 3.5888672 8 8-3.5888672 8-8 8z" fill="#ffec00"/><path d="m216 72h-120l8-16c0-26.4799805 21.5200195-48 48-48h8c8.7998047 0 16.7998047 3.6000977 22.6401367 9.3598633 5.7597656 5.8398437 9.3598633 13.8398437 9.3598633 22.6401367h8v16z" fill="#ffec00"/><path d="m216 72h-32l-16-16v-16h-8c0-8.7999878-3.6000977-16.7999878-9.3598633-22.6400146-3.3500977-3.2999878-7.4001465-5.8900146-11.9101563-7.5 4.209961-1.210022 8.6699219-1.8599854 13.2700196-1.8599854h8c8.8000488 0 16.8000488 3.5999756 22.6401367 9.3599854 5.7597656 5.8400268 9.3598633 13.8400268 9.3598633 22.6400146h8v16z" fill="#fcc200"/><path d="m200 56h-32l16 16h32z" fill="#f98800"/><path d="m104 56h64l16 16h-88z" fill="#fff599"/><path d="m136 40h32v16h-32z" fill="#fff599"/><path d="m168 144h-40c-8.7998047 0-16 7.199707-16 16v112h72v-112c0-8.800293-7.2001953-16-16-16z" fill="#f05a29"/><path d="m112 256h72v16h-72z" fill="#ddf216"/><path d="m152 144h16v112h-16z" fill="#ddf216"/><path d="m208 240v-32h32c0 8.800293-3.6000977 16.800293-9.3598633 22.6401367-5.840332 5.7597656-13.840332 9.3598633-22.6401367 9.3598633z" fill="#fac8b2"/><path d="m208 208v32h-64c-17.6801758 0-32-14.3203125-32-32v-47.0400391c0-8 5.3598633-15.4399414 13.2797852-16.7202148.9604492-.159668 1.840332-.2397461 2.7202148-.2397461 8.7998047 0 16 7.199707 16 16v48z" fill="#fcc200"/><path d="m192 208h16v32h-16z" fill="#ddf216"/><path d="m272 216h-88c-4.4179688 0-8-3.581543-8-8s3.5820313-8 8-8h88c4.4179688 0 8 3.581543 8 8s-3.5820312 8-8 8z" fill="#e22526"/><path d="m240 104h32v16h-32z" fill="#ddf216"/><path d="m160 120h-16l16 24z" fill="#eaaa94"/><path d="m368 40-64 96h64z" fill="#f05a29"/><g fill="#f98800"><path d="m400 40-32 32h32z"/><path d="m400 104-32 32h32z"/><path d="m352 136-32 32h32z"/><path d="m336 200 96 304h-16z"/><path d="m336 200-96 304h16z"/></g></svg>