<svg id="filled_outline" enable-background="new 0 0 512 512" height="512" viewBox="0 0 512 512" width="512" xmlns="http://www.w3.org/2000/svg"><path d="m336 48c-4.4179688 0-8-3.581543-8-8v-32c0-4.418457 3.5820313-8 8-8s8 3.581543 8 8v32c0 4.418457-3.5820312 8-8 8z" fill="#f05a29"/><path d="m200 104h-16c0 8.7999878-7.1999512 16-16 16h-8v24h-32v-48h24v-24h40z" fill="#fac8b2"/><path d="m152 72v24h-24v24c-14.9599609-10-24-26.7999878-24-44.8800049v-3.1199951z" fill="#286c84"/><path d="m80 472v32h64c0-17.6801758-14.3198242-32-32-32z" fill="#914d1a"/><path d="m144 472v32h64c0-17.6801758-14.3198242-32-32-32z" fill="#7f3c0f"/><path d="m184 240v64l-44.7998047 117.6000977-19.2001953 50.3999023h-40l45.2797852-168c-8.7998047-8.800293-13.2797852-20.3999023-13.2797852-32s4.4799805-23.2001953 13.2797852-32z" fill="#00587e"/><path d="m184 304v168h-40l-4.7998047-50.3999023z" fill="#014259"/><path d="m304 40h64v96h-64z" fill="#f98800"/><path d="m272 72h32v32h-32z" fill="#fcc200"/><path d="m368 40h32v32h-32z" fill="#fcc200"/><path d="m368 104h32v32h-32z" fill="#fcc200"/><path d="m320 136h32v32h-32z" fill="#fcc200"/><path d="m296 168h80v32h-80z" fill="#ffec00"/><path d="m336 200-14.5600586 55.2797852-65.4399414 248.7202148h-16l64-304z" fill="#fcc200"/><path d="m432 504h-16l-65.4399414-248.6401367v-.0800781l-14.5600586-55.2797852h32z" fill="#fcc200"/><path d="m350.5600586 255.2797852v.0800781l-6.5600586 248.6401367h-16l-6.5600586-248.7202148 14.5600586-55.2797852z" fill="#f05a29"/><path d="m272 104v56c0 8.7998047-7.2001953 16-16 16h-72v-16c0-8.800293-7.2001953-16-16-16h72v-40z" fill="#fcc200"/><path d="m272 72h-16c-8.8365631 0-16 7.1634445-16 16v16h32z" fill="#fac8b2"/><path d="m152 72v24h-24v24c-14.9599609-10-24-26.7999878-24-44.8800049v-3.1199951z" fill="#286c84"/><path d="m88 248h-17.3762207c-2.4143066-6.807373-7.8164063-12.2094116-14.6237793-14.6238403v-17.3761597c0-4.418457-3.5820313-8-8-8s-8 3.581543-8 8v17.3761597c-6.807373 2.4144287-12.2094727 7.8164673-14.6237793 14.6238403h-17.3762207c-4.4179688 0-8 3.581543-8 8s3.5820313 8 8 8h17.3762207c2.4143066 6.807373 7.8164063 12.2094116 14.6237793 14.6238403v17.3761597c0 4.418457 3.5820313 8 8 8s8-3.581543 8-8v-17.3761597c6.807373-2.4144287 12.2094727-7.8164673 14.6237793-14.6238403h17.3762207c4.4179688 0 8-3.581543 8-8s-3.5820312-8-8-8zm-40 16c-4.4111328 0-8-3.5888672-8-8s3.5888672-8 8-8 8 3.5888672 8 8-3.5888672 8-8 8z" fill="#ffec00"/><path d="m504 248h-17.3759766c-2.4145508-6.807373-7.8168945-12.2094116-14.6240234-14.6238403v-17.3761597c0-4.418457-3.5820313-8-8-8s-8 3.581543-8 8v17.3761597c-6.8071289 2.4144287-12.2094727 7.8164673-14.6240234 14.6238403h-17.3759766c-4.4179688 0-8 3.581543-8 8s3.5820313 8 8 8h17.3759766c2.4145508 6.807373 7.8168945 12.2094116 14.6240234 14.6238403v17.3761597c0 4.418457 3.5820313 8 8 8s8-3.581543 8-8v-17.3761597c6.8071289-2.4144287 12.2094727-7.8164673 14.6240234-14.6238403h17.3759766c4.4179688 0 8-3.581543 8-8s-3.5820312-8-8-8zm-40 16c-4.4111328 0-8-3.5888672-8-8s3.5888672-8 8-8 8 3.5888672 8 8-3.5888672 8-8 8z" fill="#ffec00"/><path d="m216 72h-120l8-16c0-26.4799805 21.5200195-48 48-48h8c8.7998047 0 16.7998047 3.6000977 22.6401367 9.3598633 5.7597656 5.8398437 9.3598633 13.8398437 9.3598633 22.6401367h8v16z" fill="#ffec00"/><path d="m216 72h-32l-16-16v-16h-8c0-8.7999878-3.6000977-16.7999878-9.3598633-22.6400146-3.3500977-3.2999878-7.4001465-5.8900146-11.9101563-7.5 4.209961-1.210022 8.6699219-1.8599854 13.2700196-1.8599854h8c8.8000488 0 16.8000488 3.5999756 22.6401367 9.3599854 5.7597656 5.8400268 9.3598633 13.8400268 9.3598633 22.6400146h8v16z" fill="#fcc200"/><path d="m200 56h-32l16 16h32z" fill="#f98800"/><path d="m104 56h64l16 16h-88z" fill="#fff599"/><path d="m136 40h32v16h-32z" fill="#fff599"/><path d="m168 144h-40c-8.7998047 0-16 7.199707-16 16v112h72v-112c0-8.800293-7.2001953-16-16-16z" fill="#f05a29"/><path d="m112 256h72v16h-72z" fill="#ddf216"/><path d="m152 144h16v112h-16z" fill="#ddf216"/><path d="m208 240v-32h32c0 8.800293-3.6000977 16.800293-9.3598633 22.6401367-5.840332 5.7597656-13.840332 9.3598633-22.6401367 9.3598633z" fill="#fac8b2"/><path d="m208 208v32h-64c-17.6801758 0-32-14.3203125-32-32v-47.0400391c0-8 5.3598633-15.4399414 13.2797852-16.7202148.9604492-.159668 1.840332-.2397461 2.7202148-.2397461 8.7998047 0 16 7.199707 16 16v48z" fill="#fcc200"/><path d="m192 208h16v32h-16z" fill="#ddf216"/><path d="m272 216h-88c-4.4179688 0-8-3.581543-8-8s3.5820313-8 8-8h88c4.4179688 0 8 3.581543 8 8s-3.5820312 8-8 8z" fill="#e22526"/><path d="m240 104h32v16h-32z" fill="#ddf216"/><path d="m160 120h-16l16 24z" fill="#eaaa94"/><path d="m368 40-64 96h64z" fill="#f05a29"/><g fill="#f98800"><path d="m400 40-32 32h32z"/><path d="m400 104-32 32h32z"/><path d="m352 136-32 32h32z"/><path d="m336 200 96 304h-16z"/><path d="m336 200-96 304h16z"/></g><path d="m377.8139648 207.7855225c3.5429688-.822815 6.1860352-3.9921265 6.1860352-7.7855225v-32c0-4.418457-3.5820313-8-8-8h-16v-16h8 32c4.4179688 0 8-3.581543 8-8v-32c0-4.418457-3.5820313-8-8-8h-24v-16h24c4.4179688 0 8-3.581543 8-8v-32c0-4.418457-3.5820313-8-8-8h-32-24v-24c0-4.418457-3.5820313-8-8-8s-8 3.581543-8 8v24h-24c-4.4179688 0-8 3.581543-8 8v24h-24-16c-13.2333984 0-24 10.7661133-24 24v16 32h-64v-8c10.4296875 0 19.3271484-6.6875 22.6289063-16h9.3710937c2.4638672 0 4.7900391-1.1347656 6.3056641-3.0766602s2.0527344-4.4736328 1.4550781-6.8637695l-5.5148926-22.0595703h13.7541504c3.2353516 0 6.1523438-1.9492188 7.390625-4.9384766s.5537109-6.4301758-1.7333984-8.7182617l-13.6572266-13.6567383v-12.6865234c0-4.418457-3.5820313-8-8-8h-.8027344c-1.5410156-7.5786133-5.265625-14.5849609-10.8613281-20.2578125-.0253906-.0263672-.0517578-.0527344-.078125-.0786133-7.6269531-7.5214844-17.6630859-11.6635742-28.2578125-11.6635742h-8c-30.2246094 0-54.9335938 24.0668945-55.9667969 54.0439453l-7.1884766 14.378418c-1.2402344 2.4799805-1.1074219 5.4248047.3496094 7.7836914 1.4580079 2.3583984 4.0332032 3.7939453 6.8056641 3.7939453h.2145996c1.3662109 17.3991089 9.9643555 33.3814697 23.7854004 44.0908203v13.2972412c-9.3527832 3.3874512-16 12.855835-16 23.5718994v47.0400391c0 12.3363037 5.6162109 23.3829956 14.4230957 30.7263184-7.5778809 9.4240722-11.7023926 21.0361328-11.7023926 33.2736816 0 12.5922852 4.3574219 24.527832 12.3613281 34.0932617l-46.774414 163.7089844.005127.0014648c-.1994629.6986695-.3127442 1.4336548-.3127442 2.1962891v32c0 4.418457 3.5820313 8 8 8h64 64c4.4179688 0 8-3.581543 8-8 0-16.3688354-9.8876953-30.4648438-24-36.6500244v-163.3499756-56h16c10.5957031 0 20.6308594-4.1425781 28.2568359-11.6640625.0263672-.0258789.0527344-.0517578.078125-.078125 5.595459-5.6729126 9.3168945-12.6799316 10.8583984-20.2578125h24.8066407c4.4179688 0 8-3.581543 8-8s-3.5820313-8-8-8h-64-16v-16h64c13.2333984 0 24-10.7661133 24-24v-48h16v24c0 4.418457 3.5820313 8 8 8h8v16h-16c-4.4179688 0-8 3.581543-8 8v32c0 3.793396 2.6430664 6.9627075 6.1860352 7.7855225l-62.0141602 294.5665283c-.4970703 2.3588867.0966797 4.8164063 1.6162109 6.6884766 1.5185547 1.8720703 3.8007813 2.9594726 6.2119141 2.9594726h16c3.6347656 0 6.8115234-2.449707 7.7363281-5.9643555l51.1835938-194.5349121 5.0830078 192.7102051c.1142578 4.3344727 3.6611328 7.7890625 7.9970703 7.7890625h16c4.3359375 0 7.8828125-3.4545898 7.9970703-7.7890625l5.0844727-192.7033081 51.1821289 194.5280151c.9248047 3.5146485 4.1015625 5.9643555 7.7363281 5.9643555h16c2.4111328 0 4.6933594-1.0874023 6.2119141-2.9594727 1.5195313-1.8720703 2.1132813-4.3295898 1.6162109-6.6884766zm14.1860352-95.7855225v16h-16v-16zm0-48h-16v-16h16zm-144 24c0-4.4111328 3.5888672-8 8-8h8v16h-16zm-58.2460937 8h-5.7539063c-4.4179688 0-8 3.581543-8 8 0 4.4111328-3.5888672 8-8 8h-8c-4.4179688 0-8 3.581543-8 8v16h-16v-16-16h16c4.4179688 0 8-3.581543 8-8v-16h25.7541504zm-78.5986329-36.4223633c.5556641-1.1108398.8447266-2.3354492.8447266-3.5776367 0-22.0561523 17.9443359-40 40-40h8c6.3457031 0 12.375 2.4916992 16.984375 7.0170898 4.5244141 4.6079102 7.015625 10.6367188 7.015625 16.9829102 0 4.418457 3.5820313 8 8 8v8c0 2.121582.8427734 4.1567383 2.3427734 5.6567383l2.34375 2.3432617h-87.7421875zm1.1210938 20.4223633h31.7236328v8h-16c-4.4179688 0-8 3.581543-8 8v5.0151367c-4.2382812-6.2077026-6.9152832-13.40802-7.7236328-21.0151367zm-24.2763672 416v-16h24c10.4296875 0 19.3271484 6.6875 22.6289063 16zm46.4833984-39.5471191 1.4799805 15.5402222c-1.8740234-1.4065552-3.8798828-2.6442261-5.9870605-3.7092285zm64.1455079 39.5471191h-46.6289063v-16h24c10.4296875 0 19.3271484 6.6875 22.6289063 16zm-47.3547364-32-3.9331055-41.2988892 28.6589356-75.2295532v116.5284424zm24.7258301-161.472168-61.5444336 161.5548096c-.8129883-.0494995-1.6303711-.0826416-2.4555664-.0826416h-21.394043l45.0864258-157.8022461c.7978516-2.793457.0185547-5.800293-2.0351563-7.8544922-7.0527343-7.0527344-10.9365234-16.4082031-10.9365234-26.3432617 0-9.5806885 3.6203613-18.6154785 10.2021484-25.5723877 3.5202637 1.0164795 7.2338868 1.5723877 11.0771485 1.5723877h32zm48.9833984-77.5454101c-2.6064453 2.5597534-5.6677246 4.4675293-8.9833984 5.6431274v-14.6255493h14.6254883c-1.175293 3.3151855-3.0827637 6.3761597-5.6420899 8.9824219zm-24.9833984 7.0175781h-56c-13.2333984 0-24-10.7661133-24-24v-47.0400391c0-4.4257813 2.8183594-8.21875 6.5908203-8.8286133.5400391-.0893554.9873047-.1313476 1.4091797-.1313476 4.4111328 0 8 3.5888672 8 8v48c0 4.418457 3.5820313 8 8 8h56zm-48-32v-40c0-2.8045044-.4880371-5.4960938-1.3762207-8h17.3762207c4.4111328 0 8 3.5888672 8 8v40zm104-32h-64v-8c0-2.8045044-.4880371-5.4960938-1.3762207-8h49.3762207c4.4179688 0 8-3.581543 8-8v-32h16v48c0 4.4111328-3.5888672 8-8 8zm24-72v-16h16v16zm32-48h48v80h-48zm16 96h16v16h-16zm-24 32h64v16h-64zm-54.0322266 319.4858398 60.5229493-287.4858398h15.1293945l-11.9169922 45.2441406zm85.8242188.5141602-6.3251953-239.7871094 6.5332031-24.8035278 6.5351563 24.8123169-6.3271485 239.7783203zm22.5039062-242.7578125-11.9160156-45.2421875h15.1293945l60.5229492 287.4863281z"/><path d="m70.6237793 264h17.3762207c4.4179688 0 8-3.581543 8-8s-3.5820313-8-8-8h-17.3762207c-2.4143066-6.807373-7.8164063-12.2094116-14.6237793-14.6238403v-17.3761597c0-4.418457-3.5820313-8-8-8s-8 3.581543-8 8v17.3761597c-6.807373 2.4144287-12.2094727 7.8164673-14.6237793 14.6238403h-17.3762207c-4.4179688 0-8 3.581543-8 8s3.5820313 8 8 8h17.3762207c2.4143066 6.807373 7.8164063 12.2094116 14.6237793 14.6238403v17.3761597c0 4.418457 3.5820313 8 8 8s8-3.581543 8-8v-17.3761597c6.807373-2.4144287 12.2094727-7.8164673 14.6237793-14.6238403zm-22.6237793 0c-4.4111328 0-8-3.5888672-8-8s3.5888672-8 8-8 8 3.5888672 8 8-3.5888672 8-8 8z"/><path d="m504 248h-17.3759766c-2.4145508-6.807373-7.8168945-12.2094116-14.6240234-14.6238403v-17.3761597c0-4.418457-3.5820313-8-8-8s-8 3.581543-8 8v17.3761597c-6.8071289 2.4144287-12.2094727 7.8164673-14.6240234 14.6238403h-17.3759766c-4.4179688 0-8 3.581543-8 8s3.5820313 8 8 8h17.3759766c2.4145508 6.807373 7.8168945 12.2094116 14.6240234 14.6238403v17.3761597c0 4.418457 3.5820313 8 8 8s8-3.581543 8-8v-17.3761597c6.8071289-2.4144287 12.2094727-7.8164673 14.6240234-14.6238403h17.3759766c4.4179688 0 8-3.581543 8-8s-3.5820312-8-8-8zm-40 16c-4.4111328 0-8-3.5888672-8-8s3.5888672-8 8-8 8 3.5888672 8 8-3.5888672 8-8 8z"/></svg>