<svg height="512" viewBox="0 0 46 60" width="512" xmlns="http://www.w3.org/2000/svg"><g id="Page-1" fill="none" fill-rule="evenodd"><g id="008---Surveying-Equipment"><path id="Shape" d="m41 10.24v39.76c0 .5522847-.4477153 1-1 1h-3v-11c-.0032948-1.1032019-.8967981-1.9967052-2-2h-3v-23l2.59-2.59c.3744562-.3736892.5848881-.8809811.5848881-1.41s-.2104319-1.03631081-.5848881-1.41l-4-4c-.3761733-.37747734-.8870877-.58975868-1.42-.59h-12.34c-.5329123.00024132-1.0438267.21252266-1.42.59l-4 4c-.3744562.37368919-.5848881.8809811-.5848881 1.41s.2104319 1.0363108.5848881 1.41l2.59 2.59v23h-3c-1.10320187.0032948-1.9967052.8967981-2 2v11h-3c-.55228475 0-1-.4477153-1-1v-39.76c.00233705-.79505355.31861791-1.55700288.88-2.12l6.24-6.24c.5629971-.56138209 1.3249465-.87766295 2.12-.88h17.52c.7950535.00233705 1.5570029.31861791 2.12.88l6.24 6.24c.5613821.56299712.8776629 1.32494645.88 2.12z" fill="#ffdc00" fill-rule="nonzero"/><path id="Shape" d="m12.41 5.59-4 4c-.37445618.37368919-.58488806.8809811-.58488806 1.41s.21043188 1.0363108.58488806 1.41l2.59 2.59v23h3v-23l-2.59-2.59c-.3744562-.3736892-.5848881-.8809811-.5848881-1.41s.2104319-1.03631081.5848881-1.41l4-4c.3761733-.37747734.8870877-.58975868 1.42-.59h-3c-.5329123.00024132-1.0438267.21252266-1.42.59z" fill="#fec108" fill-rule="nonzero"/><path id="Shape" d="m6 40v11h3v-11c.0032948-1.1032019.89679813-1.9967052 2-2h-3c-1.10320187.0032948-1.9967052.8967981-2 2z" fill="#fec108" fill-rule="nonzero"/><path id="Shape" d="m40.12 8.12-6.24-6.24c-.5629971-.56138209-1.3249465-.87766295-2.12-.88h-3c.7950535.00233705 1.5570029.31861791 2.12.88l6.24 6.24c.5613821.56299712.8776629 1.32494645.88 2.12v39.76c0 .5522847-.4477153 1-1 1h3c.5522847 0 1-.4477153 1-1v-39.76c-.0023371-.79505355-.3186179-1.55700288-.88-2.12z" fill="#fec108" fill-rule="nonzero"/><path id="Shape" d="m11.41 12.41c-.3744562-.3736892-.5848881-.8809811-.5848881-1.41s.2104319-1.03631081.5848881-1.41l4-4c.3761733-.37747734.8870877-.58975868 1.42-.59h12.34c.5329123.00024132 1.0438267.21252266 1.42.59l4 4c.3744562.37368919.5848881.8809811.5848881 1.41s-.2104319 1.0363108-.5848881 1.41l-2.59 2.59v1c0-1.6568542-1.3431458-3-3-3h-12c-1.6568542 0-3 1.3431458-3 3v-1z" stroke="#000" stroke-linecap="round" stroke-linejoin="round" stroke-width="2"/><path id="Shape" d="m37 40v11h-28v-11c.0032948-1.1032019.89679813-1.9967052 2-2h3v-8c0 1.6568542 1.3431458 3 3 3h12c1.6568542 0 3-1.3431458 3-3v8h3c1.1032019.0032948 1.9967052.8967981 2 2z" stroke="#000" stroke-linecap="round" stroke-linejoin="round" stroke-width="2"/><path id="Shape" d="m32 30v8h-18v-8c0 1.6568542 1.3431458 3 3 3h12c1.6568542 0 3-1.3431458 3-3z" stroke="#000" stroke-linecap="round" stroke-linejoin="round" stroke-width="2"/><path id="Shape" d="m34.59 12.41-2.59 2.59v1c0-1.6568542-1.3431458-3-3-3h-12c-1.6568542 0-3 1.3431458-3 3v-1l-2.59-2.59c-.3744562-.3736892-.5848881-.8809811-.5848881-1.41s.2104319-1.03631081.5848881-1.41l4-4c.3761733-.37747734.8870877-.58975868 1.42-.59h12.34c.5329123.00024132 1.0438267.21252266 1.42.59l4 4c.3744562.37368919.5848881.8809811.5848881 1.41s-.2104319 1.0363108-.5848881 1.41z" stroke="#000" stroke-linecap="round" stroke-linejoin="round" stroke-width="2"/><g fill-rule="nonzero"><path id="Shape" d="m37 40v11h-28v-11c.0032948-1.1032019.89679813-1.9967052 2-2h24c1.1032019.0032948 1.9967052.8967981 2 2z" fill="#ffeb3a"/><path id="Shape" d="m35 38h-3c1.1032019.0032948 1.9967052.8967981 2 2v11h3v-11c-.0032948-1.1032019-.8967981-1.9967052-2-2z" fill="#fdd834"/><path id="Shape" d="m16 55h-3l-4-4h28l-4 4h-12" fill="#545c60"/><path id="Shape" d="m21 55h13c1.1032019.0032948 1.9967052.8967981 2 2-.0081672 1.1011688-.8988312 1.9918328-2 2h-22c-1.1032019-.0032948-1.9967052-.8967981-2-2 .0081672-1.1011688.8988312-1.9918328 2-2h4" fill="#fec108"/><path id="Shape" d="m5 41v6h-2c-1.10320187-.0032948-1.9967052-.8967981-2-2v-2c.0032948-1.1032019.89679813-1.9967052 2-2z" fill="#ff9801"/><path id="Shape" d="m45 14v2c-.0032948 1.1032019-.8967981 1.9967052-2 2h-2v-6h2c1.1032019.0032948 1.9967052.8967981 2 2z" fill="#ff9801"/><rect id="Rectangle-path" fill="#cfd8dc" height="20" rx="3" width="18" x="14" y="13"/><path id="Shape" d="m29 13h-3c1.6568542 0 3 1.3431458 3 3v14c0 1.6568542-1.3431458 3-3 3h3c1.6568542 0 3-1.3431458 3-3v-14c0-1.6568542-1.3431458-3-3-3z" fill="#9e9e9e"/><circle id="Oval" cx="23" cy="23" fill="#00bcd4" r="5"/><path id="Shape" d="m23 18c-.5100781.007121-1.0160138.0927928-1.5.254 2.0807519.6438254 3.4994946 2.5679184 3.4994946 4.746s-1.4187427 4.1021746-3.4994946 4.746c1.8757024.5955702 3.9262648.0330725 5.2355561-1.4361857 1.3092914-1.4692582 1.6327423-3.5708265.8258444-5.3657859s-2.5934199-2.9480201-4.5614005-2.9440284z" fill="#00838f"/><rect id="Rectangle-path" fill="#00bcd4" height="5" rx="1" width="8" x="13" y="42"/><path id="Shape" d="m3 48h1v2c0 1.1045695.8954305 2 2 2h2.586l2.239 2.239c-.3497464.1476865-.6665759.3635522-.932.635-.5752473.5571583-.89784564 1.3251808-.893 2.126 0 1.6568542 1.3431458 3 3 3h22c1.6529917-.0092882 2.9907118-1.3470083 3-3-.0002995-1.2028783-.7190524-2.2892737-1.826-2.76l2.24-2.24h2.586c1.1045695 0 2-.8954305 2-2v-31h1c1.6568542 0 3-1.3431458 3-3v-2c0-1.6568542-1.3431458-3-3-3h-1v-.757c.0028067-1.06167454-.4192123-2.08035361-1.172-2.829l-6.242-6.242c-.7513303-.74816126-1.7677002-1.16937255-2.828-1.172h-17.516c-1.0602998.00262745-2.0766697.42383874-2.828 1.172l-6.242 6.242c-.75278768.74864639-1.17480673 1.76732546-1.172 2.829v29.757h-1c-1.65685425 0-3 1.3431458-3 3v2c0 1.6568542 1.34314575 3 3 3zm12-32c0-1.1045695.8954305-2 2-2h12c1.1045695 0 2 .8954305 2 2v14c0 1.1045695-.8954305 2-2 2h-12c-1.1045695 0-2-.8954305-2-2zm14-4h-12c-1.2036776.004294-2.3406126.553641-3.092 1.494l-1.787-1.787c-.3903819-.3904999-.3903819-1.0235001 0-1.414l4-4c.1880463-.18671948.4420009-.29196515.707-.293h12.344c.2649991.00103485.5189537.10628052.707.293l4 4c.3903819.3904999.3903819 1.0235001 0 1.414l-1.787 1.787c-.7513874-.940359-1.8883224-1.489706-3.092-1.494zm-14 21.444c.6053465.3599241 1.2957468.5518554 2 .556h12c.7042532-.0041446 1.3946535-.1960759 2-.556v3.556h-16zm-1 5.556h21c.5522847 0 1 .4477153 1 1v10h-26v-10c0-.5522847.4477153-1 1-1zm20.694 18.712c-.1823963.1865985-.4330776.2906276-.694.288h-22c-.5522847 0-1-.4477153-1-1-.0003954-.2693445.110308-.526929.306-.712.1823963-.1865985.4330776-.2906276.694-.288h4c.5522847 0 1-.4477153 1-1s-.4477153-1-1-1h-2.586l-2-2h23.172l-2 2h-11.586c-.5522847 0-1 .4477153-1 1s.4477153 1 1 1h13c.5522847 0 1 .4477153 1 1 .0003954.2693445-.110308.526929-.306.712zm8.306-44.712c.5522847 0 1 .4477153 1 1v2c0 .5522847-.4477153 1-1 1h-1v-4zm-37-2.757c-.00125841-.53095542.20971869-1.04039671.586-1.415l6.242-6.242c.3756652-.37408063.8838501-.58468627 1.414-.586h17.516c.5301499.00131373 1.0383348.21191937 1.414.586l6.242 6.242c.3762813.37460329.5872584.88404458.586 1.415l.0000056 39.757h-2.0000056v-10c0-1.6568542-1.3431458-3-3-3h-2v-21.586l2.293-2.292c.562719-.5626237.8788593-1.3257625.8788593-2.1215s-.3161403-1.55887626-.8788593-2.1215l-4-4c-.5610959-.56471277-1.3249322-.8812673-2.121-.879h-12.344c-.7960678-.0022673-1.5599041.31428723-2.121.879l-4 4c-.562719.56262374-.87885933 1.3257625-.87885933 2.1215s.31614033 1.5588763.87885933 2.1215l2.293 2.292v21.586h-2c-1.65685425 0-3 1.3431458-3 3v10h-2.0000056zm-4 32.757c0-.5522847.44771525-1 1-1h1v4h-1c-.55228475 0-1-.4477153-1-1z" fill="#000"/><path id="Shape" d="m23 29c3.3137085 0 6-2.6862915 6-6s-2.6862915-6-6-6-6 2.6862915-6 6c.0033074 3.3123376 2.6876624 5.9966926 6 6zm0-10c2.209139 0 4 1.790861 4 4s-1.790861 4-4 4-4-1.790861-4-4 1.790861-4 4-4z" fill="#000"/><path id="Shape" d="m14 48h6c1.1045695 0 2-.8954305 2-2v-3c0-1.1045695-.8954305-2-2-2h-6c-1.1045695 0-2 .8954305-2 2v3c0 1.1045695.8954305 2 2 2zm0-5h6v3h-6z" fill="#000"/><circle id="Oval" cx="25" cy="43" fill="#000" r="1"/><circle id="Oval" cx="29" cy="43" fill="#000" r="1"/><circle id="Oval" cx="33" cy="43" fill="#000" r="1"/><circle id="Oval" cx="25" cy="47" fill="#000" r="1"/><circle id="Oval" cx="29" cy="47" fill="#000" r="1"/><circle id="Oval" cx="33" cy="47" fill="#000" r="1"/></g></g></g></svg>